<svg xmlns="http://www.w3.org/2000/svg" viewBox="0 0 490.02 228.37"><defs><style>.cls-1{fill:#21282d;}.cls-2{fill:#eefaff;}</style></defs><g id="Calque_2" data-name="Calque 2"><g id="Calque_1-2" data-name="Calque 1"><g id="Calque_2-2" data-name="Calque 2"><g id="Calque_1-2-2" data-name="Calque 1-2"><path class="cls-1" d="M232.82,158.06c-6.07,5.64-11.3,10.64-16.68,15.48-18.51,16.62-38,31.84-60.22,43.36-32.76,17-65.15,14.29-96.55-2.72-29.95-16.22-49-41.62-56.54-75A113.62,113.62,0,0,1,77.16,6.44c.89-.3,1.81-.48,3.41-.9-7,5.11-13.87,9.23-19.68,14.48C33.41,44.84,21.77,75.77,29.24,112.2s29,61.45,65.33,72.37c17.09,5.13,33.05,1.57,47.89-7.4,8.52-5.16,16.43-11.32,24.71-16.88,1.84-1.24,4.08-2.66,6.15-2.69,18.66-.2,37.33-.12,56-.1A31.49,31.49,0,0,1,232.82,158.06Z"/><path class="cls-1" d="M490,119.47c-1.12,45.06-32.8,87.69-75.47,102.2-1.37.47-2.79.78-4.19,1.17,12.25-7.77,23-16.71,32-27.88,25-31,27.58-77,6.34-110.45-12.59-19.87-29.32-34.22-52.27-40.7-16.49-4.66-32.09-1.87-46.72,6.31-8,4.45-15.31,10-23.05,14.84-2,1.26-4.45,2.61-6.71,2.64-19,.2-38,.12-57,.1a21.83,21.83,0,0,1-2.41-.34,11.11,11.11,0,0,1,1.33-2.2c22.11-20.85,45.27-40.27,72.73-53.9C372.13-7.38,408-2,441.19,21,475.16,44.48,491,78.18,490,119.47Z"/><path class="cls-2" d="M453.34,144.78c-5,35.95-25,60.6-58.69,73.79-12.36,4.83-25.57,7.56-38.66,4.85-8.76-1.81-17.26-5.95-25.26-10.2-26.68-14.16-49.23-33.87-71.09-55.2H272c14.33,0,28.66-.16,43,.14a18,18,0,0,1,8.54,3c9.85,6.18,19.08,13.49,29.32,18.89,25.76,13.57,49.83,7.86,71.66-9.18,17.11-13.35,26.21-32.77,27-53.58h1.45C453.12,126.46,454.58,135.81,453.34,144.78Z"/><path class="cls-2" d="M227.11,66.45c-2,.14-3.54.33-5,.33-17,0-34,.18-51-.14-3.22-.06-6.68-1.55-9.53-3.23-8.19-4.81-15.9-10.41-24.13-15.06C112,33.9,82.65,43.11,64.88,58.14,48.42,72.06,39.76,90,38.49,112.77c-4.82-22.77-2-43.42,9.13-62.37C63.73,23,87.88,8.18,119.65,4.59c17.19-1.94,30.77,5.44,44.51,13.23,22.58,12.8,42.19,29.61,61.55,46.7A14,14,0,0,1,227.11,66.45Z"/><path class="cls-2" d="M429.29,91.59v47.15H416.45v-24l-1.37-.32-10.53,16-11-16.45-1,.13V138.6H380.11v-47c18.09-1.92,15.13,4.94,24.51,18.09C414.24,96.73,410.8,89.72,429.29,91.59Z"/><path class="cls-2" d="M347.17,90.72c-13.91.29-25,11.25-24.9,24.69,1.45,33.36,50.63,31.9,50.76-.66C372.81,101,361.49,90.43,347.17,90.72Zm.67,37c-7,0-11.88-5.15-11.9-12.48,0-16.63,23.34-16.19,23.73-.11.12,7.15-5,12.56-11.83,12.58Z"/><path class="cls-2" d="M252.55,122.8a19.46,19.46,0,0,1,1.52-1.23c6.74-4.09,8.76-10.19,7.21-17.6C259.79,96.84,254.8,92.9,248,92.44c-9.05-.61-18.17-.15-27.5-.15v46.24H233.2V125.46c3.83-1.4,6.14-.45,7.9,2.69a83.77,83.77,0,0,0,5.54,8.3c.73,1,1.9,2.24,2.94,2.31,4.21.26,8.45.1,13.63.1C259.24,132.89,255.9,127.84,252.55,122.8Zm-9.67-8.63c-2.93.3-5.92.06-9.4.06V103.31c5.26.37,14.86-2.24,14.87,5.53C248.29,112.4,246,113.86,242.88,114.17Z"/><path class="cls-2" d="M292,90.72c-14.23,0-25.47,11-25.39,24.72,1,32.57,49.63,32.37,50.64,0C317.23,101.42,306.29,90.72,292,90.72Zm-.25,37c-6.86-.11-11.73-5.48-11.59-12.81.41-16.52,23.77-15.61,23.73.56-.13,7.18-5.24,12.34-12.19,12.24Z"/><path class="cls-2" d="M213.18,127.42v11.26H175.84V91.84h37.07v11H188.79v6.86c6.24,0,12.19.2,18.12-.07,4-.18,4.31,1.94,4.15,5s.83,6.28-4.14,6c-4.31-.23-8.65-.07-13,0-5.9,0-6,.15-4.91,6.85Z"/><path class="cls-2" d="M170.78,91.59c-5.12,14.85-11.75,28.7-17,43.44-1.72,4.64-4.88,4.05-8.31,4.15s-5.9,0-7.42-4c-5.24-13.84-10.92-27.53-16.41-41.28a12.14,12.14,0,0,1-.34-1.78,3.12,3.12,0,0,1,.76-.31C135,90.48,135,90.48,139.27,102.54l6,16.41c.09.23.47.35,1.2.87,2.63-7.29,5.64-14.3,7.64-21.59,1.53-5.59,4.4-7.6,9.92-6.69C166,91.86,168,91.59,170.78,91.59Z"/><path class="cls-2" d="M97.08,132.69a51.19,51.19,0,0,0,0,5.81H61.37V92H74.3v28.89c0,6.44,0,6.44,6.55,6.45,3.66,0,7.34.25,11-.06C96.05,126.94,97.56,128.6,97.08,132.69Z"/><rect class="cls-2" x="103.34" y="91.91" width="12.29" height="46.8"/></g></g></g></g></svg>